<svg width="12" height="5" viewBox="0 0 12 5" fill="none" xmlns="http://www.w3.org/2000/svg">
<path fill-rule="evenodd" clip-rule="evenodd" d="M0.953124 0.174623C0.995876 0.124741 1.04804 0.0837735 1.10663 0.0540611C1.16522 0.0243486 1.2291 0.00647388 1.2946 0.00145893C1.3601 -0.00355601 1.42595 0.00438726 1.48839 0.0248341C1.55082 0.045281 1.60861 0.0778305 1.65846 0.120623L5.99979 3.84129L10.3411 0.120623C10.4423 0.0393757 10.5712 0.000671316 10.7004 0.0126919C10.8297 0.0247126 10.9492 0.0865161 11.0336 0.185037C11.1181 0.283559 11.161 0.411077 11.1532 0.540634C11.1454 0.670191 11.0875 0.791634 10.9918 0.87929L6.32512 4.87929C6.23451 4.95693 6.11912 4.99961 5.99979 4.99961C5.88046 4.99961 5.76507 4.95693 5.67446 4.87929L1.00779 0.87929C0.907248 0.792967 0.845084 0.670261 0.834959 0.538132C0.824834 0.406003 0.867575 0.275258 0.953791 0.174623" fill="#2E3338"/>
</svg>
