<svg width="20" height="20" viewBox="0 0 20 20" fill="none" xmlns="http://www.w3.org/2000/svg">
<path fill-rule="evenodd" clip-rule="evenodd" d="M11.2249 4.55827C11.3421 4.44123 11.501 4.37549 11.6666 4.37549C11.8322 4.37549 11.9911 4.44123 12.1083 4.55827L17.1083 9.55827C17.2253 9.67546 17.291 9.83431 17.291 9.99994C17.291 10.1656 17.2253 10.3244 17.1083 10.4416L12.1083 15.4416C12.051 15.503 11.982 15.5523 11.9054 15.5864C11.8287 15.6206 11.7459 15.6389 11.662 15.6404C11.5781 15.6419 11.4947 15.6265 11.4169 15.595C11.3391 15.5636 11.2684 15.5168 11.2091 15.4575C11.1497 15.3981 11.1029 15.3274 11.0715 15.2496C11.04 15.1718 11.0246 15.0884 11.0261 15.0045C11.0276 14.9206 11.0459 14.8378 11.0801 14.7612C11.1143 14.6845 11.1635 14.6155 11.2249 14.5583L15.1583 10.6249L3.33325 10.6249C3.16749 10.6249 3.00852 10.5591 2.89131 10.4419C2.7741 10.3247 2.70825 10.1657 2.70825 9.99994C2.70825 9.83418 2.7741 9.67521 2.89131 9.558C3.00852 9.44079 3.16749 9.37494 3.33325 9.37494L15.1583 9.37494L11.2249 5.44161C11.1079 5.32442 11.0421 5.16556 11.0421 4.99994C11.0421 4.83431 11.1079 4.67546 11.2249 4.55827Z" fill="#0179EF"/>
</svg>
