<svg width="24" height="24" viewBox="0 0 24 24" fill="none" xmlns="http://www.w3.org/2000/svg">
  <path fill-rule="evenodd" clip-rule="evenodd"
    d="M10.5293 18.5492C10.3887 18.6896 10.1981 18.7685 9.99934 18.7685C9.80059 18.7685 9.60997 18.6896 9.46934 18.5492L3.46934 12.5492C3.32889 12.4086 3.25 12.2179 3.25 12.0192C3.25 11.8204 3.32889 11.6298 3.46934 11.4892L9.46934 5.4892C9.538 5.41551 9.6208 5.35641 9.7128 5.31541C9.8048 5.27442 9.90412 5.25238 10.0048 5.25061C10.1055 5.24883 10.2055 5.26735 10.2989 5.30507C10.3923 5.34279 10.4772 5.39894 10.5484 5.47016C10.6196 5.54138 10.6757 5.62621 10.7135 5.7196C10.7512 5.81299 10.7697 5.91302 10.7679 6.01372C10.7662 6.11442 10.7441 6.21374 10.7031 6.30573C10.6621 6.39773 10.603 6.48053 10.5293 6.5492L5.80934 11.2692H19.9993C20.1983 11.2692 20.389 11.3482 20.5297 11.4889C20.6703 11.6295 20.7493 11.8203 20.7493 12.0192C20.7493 12.2181 20.6703 12.4089 20.5297 12.5495C20.389 12.6902 20.1983 12.7692 19.9993 12.7692H5.80934L10.5293 17.4892C10.6698 17.6298 10.7487 17.8204 10.7487 18.0192C10.7487 18.2179 10.6698 18.4086 10.5293 18.5492Z"
    fill="#2E3338" />
</svg>
  