<svg width="24" height="24" viewBox="0 0 24 24" fill="none" xmlns="http://www.w3.org/2000/svg">
<path fill-rule="evenodd" clip-rule="evenodd" d="M20.5279 10.3742C20.1579 9.7322 19.4779 9.5212 18.8289 9.4302C18.1759 9.3392 17.3009 9.3392 16.2429 9.3392H16.1829C15.5529 9.3392 15.1399 9.3322 14.8399 9.2912C14.5689 9.2532 14.4829 9.1972 14.4459 9.1642C14.4189 9.1362 14.3709 9.0712 14.3379 8.8342C14.2989 8.5542 14.2979 8.1712 14.2979 7.5572V7.1832C14.2979 5.5952 14.2979 4.3232 14.1749 3.4172C14.0609 2.5662 13.7879 1.6102 12.8439 1.3202C11.9159 1.0362 11.1379 1.6462 10.5339 2.2742C9.88895 2.9442 9.12395 3.9792 8.16595 5.2752L5.02895 9.5202C4.41895 10.3452 3.90895 11.0342 3.60695 11.6032C3.30295 12.1732 3.08195 12.8512 3.41895 13.5272V13.5292L3.42295 13.5372L3.42695 13.5442L3.43095 13.5522L3.43595 13.5602L3.43995 13.5682L3.44395 13.5762L3.44895 13.5842L3.45295 13.5912L3.45395 13.5932C3.82195 14.2302 4.49795 14.4532 5.15295 14.5532C5.82695 14.6552 6.72695 14.6622 7.81795 14.6622C8.45495 14.6622 8.85995 14.6632 9.15795 14.7022C9.42195 14.7352 9.50095 14.7872 9.53395 14.8162C9.56395 14.8482 9.61695 14.9212 9.65395 15.1662C9.69595 15.4472 9.70295 15.8362 9.70295 16.4432V16.8182C9.70295 18.4052 9.70295 19.6782 9.82495 20.5842C9.93995 21.4342 10.2119 22.3912 11.1559 22.6802C12.0839 22.9642 12.8619 22.3552 13.4659 21.7262C14.1109 21.0562 14.8759 20.0222 15.8339 18.7252L18.9339 14.5322C19.5639 13.6782 20.0839 12.9652 20.3889 12.3722C20.6889 11.7922 20.8979 11.1102 20.5639 10.4402L20.5619 10.4382L20.5589 10.4302L20.5549 10.4222L20.5509 10.4152L20.5469 10.4062L20.5419 10.3982L20.5379 10.3912L20.5329 10.3832L20.5289 10.3762L20.5279 10.3742ZM11.6149 3.3142C11.0459 3.9042 10.3389 4.8592 9.33495 6.2172L6.27295 10.3602C5.61495 11.2502 5.17495 11.8492 4.93095 12.3082C4.81095 12.5312 4.76695 12.6722 4.75395 12.7582C4.74595 12.8112 4.75095 12.8342 4.75695 12.8502C4.78195 12.8852 4.88695 12.9942 5.37895 13.0702C5.91695 13.1522 6.68995 13.1622 7.81795 13.1622H7.86395C8.44095 13.1622 8.94395 13.1622 9.34795 13.2132C9.78095 13.2692 10.2119 13.3942 10.5679 13.7292L10.5739 13.7352L10.5799 13.7402C10.9299 14.0842 11.0719 14.5102 11.1369 14.9432C11.1989 15.3572 11.2029 15.8662 11.2029 16.4432V16.7532C11.2029 18.4202 11.2039 19.5892 11.3109 20.3832C11.3649 20.7792 11.4359 21.0112 11.5049 21.1402C11.5559 21.2372 11.5859 21.2442 11.5949 21.2462H11.5969C11.6069 21.2502 11.6449 21.2632 11.7579 21.2062C11.8999 21.1342 12.1029 20.9802 12.3859 20.6862C12.9539 20.0962 13.6619 19.1412 14.6659 17.7832L17.7269 13.6402C18.3809 12.7552 18.8169 12.1482 19.0569 11.6842C19.2609 11.2872 19.2379 11.1532 19.2249 11.1172C19.2019 11.0842 19.1019 10.9832 18.6219 10.9152C18.0849 10.8402 17.3159 10.8392 16.1819 10.8392C15.5799 10.8392 15.0569 10.8352 14.6339 10.7762C14.1969 10.7162 13.7649 10.5842 13.4119 10.2522L13.4059 10.2462L13.4009 10.2412C13.0479 9.8942 12.9109 9.4692 12.8519 9.0392C12.7969 8.6452 12.7979 8.1562 12.7979 7.6052V7.2472C12.7979 5.5802 12.7959 4.4112 12.6879 3.6172C12.6359 3.2222 12.5639 2.9902 12.4949 2.8602C12.4439 2.7632 12.4149 2.7572 12.4059 2.7552H12.4039L12.4029 2.7542C12.3929 2.7502 12.3559 2.7382 12.2419 2.7942C12.0999 2.8662 11.8979 3.0202 11.6149 3.3142Z" fill="#2E3338"/>
</svg>
