<svg width="24" height="24" viewBox="0 0 24 24" fill="none" xmlns="http://www.w3.org/2000/svg">
<path fill-rule="evenodd" clip-rule="evenodd" d="M11.8 1H11.7C11.036 1 10.463 1 10.004 1.062C9.513 1.128 9.041 1.277 8.659 1.659C8.277 2.041 8.128 2.513 8.062 3.004C8 3.463 8 4.036 8 4.701V7.128C7.75884 7.04399 7.50537 7.00073 7.25 7H4.25C3.95453 7 3.66194 7.0582 3.38896 7.17127C3.11598 7.28434 2.86794 7.45008 2.65901 7.65901C2.45008 7.86794 2.28434 8.11598 2.17127 8.38896C2.0582 8.66195 2 8.95453 2 9.25V21H1.75C1.55109 21 1.36032 21.079 1.21967 21.2197C1.07902 21.3603 1 21.5511 1 21.75C1 21.9489 1.07902 22.1397 1.21967 22.2803C1.36032 22.421 1.55109 22.5 1.75 22.5H21.75C21.9489 22.5 22.1397 22.421 22.2803 22.2803C22.421 22.1397 22.5 21.9489 22.5 21.75C22.5 21.5511 22.421 21.3603 22.2803 21.2197C22.1397 21.079 21.9489 21 21.75 21H21.5V14.25C21.5 13.6533 21.2629 13.081 20.841 12.659C20.419 12.2371 19.8467 12 19.25 12H16.25C15.986 12.0013 15.736 12.044 15.5 12.128V4.701C15.5 4.036 15.5 3.463 15.438 3.004C15.372 2.513 15.223 2.041 14.841 1.659C14.459 1.277 13.988 1.128 13.496 1.062C13.037 1 12.464 1 11.799 1M19.999 21V14.25C19.999 14.0511 19.92 13.8603 19.7793 13.7197C19.6387 13.579 19.4479 13.5 19.249 13.5H16.249C16.0501 13.5 15.8593 13.579 15.7187 13.7197C15.578 13.8603 15.499 14.0511 15.499 14.25V21H19.999ZM13.999 21V4.75C13.999 4.022 13.997 3.55 13.951 3.204C13.907 2.879 13.836 2.777 13.779 2.72C13.722 2.663 13.62 2.592 13.295 2.548C12.948 2.502 12.477 2.5 11.749 2.5C11.021 2.5 10.549 2.502 10.203 2.548C9.878 2.592 9.776 2.663 9.719 2.72C9.662 2.777 9.591 2.879 9.547 3.204C9.501 3.551 9.499 4.022 9.499 4.75V21H13.999ZM7.999 21V9.25C7.999 9.05109 7.91998 8.86032 7.77933 8.71967C7.63868 8.57902 7.44791 8.5 7.249 8.5H4.249C4.05009 8.5 3.85932 8.57902 3.71867 8.71967C3.57802 8.86032 3.499 9.05109 3.499 9.25V21H7.999Z" fill="#2E3338"/>
</svg>
