<svg width="24" height="24" viewBox="0 0 24 24" fill="none" xmlns="http://www.w3.org/2000/svg">
<path fill-rule="evenodd" clip-rule="evenodd" d="M18.4929 6.93479C18.6427 7.06556 18.7344 7.25048 18.7479 7.44888C18.7614 7.64728 18.6956 7.84292 18.5649 7.99279L10.7079 16.9928C10.6375 17.0734 10.5506 17.1381 10.4532 17.1824C10.3557 17.2266 10.2499 17.2496 10.1429 17.2496C10.0358 17.2496 9.93003 17.2266 9.83258 17.1824C9.73512 17.1381 9.64828 17.0734 9.57788 16.9928L6.43488 13.3928C6.30881 13.2423 6.24676 13.0484 6.26205 12.8527C6.27734 12.657 6.36875 12.4751 6.51667 12.346C6.66458 12.2169 6.85721 12.151 7.05319 12.1624C7.24917 12.1737 7.43288 12.2615 7.56488 12.4068L10.1429 15.3598L17.4349 7.00679C17.5657 6.85698 17.7506 6.76523 17.949 6.75173C18.1474 6.73823 18.343 6.80408 18.4929 6.93479Z" fill="#2E3338"/>
</svg>
