<svg width="12" height="10" viewBox="0 0 12 10" fill="none" xmlns="http://www.w3.org/2000/svg">
<path d="M11.663 1.99248C11.767 1.88714 11.8505 1.76011 11.9083 1.61896C11.9662 1.47782 11.9973 1.32545 11.9998 1.17095C12.0023 1.01645 11.9762 0.862987 11.9229 0.719711C11.8697 0.576434 11.7904 0.446283 11.6899 0.337019C11.5893 0.227755 11.4696 0.141617 11.3377 0.0837457C11.2059 0.025874 11.0647 -0.00254687 10.9225 0.000179072C10.7803 0.00290502 10.6401 0.0367219 10.5102 0.0996118C10.3804 0.162502 10.2635 0.253177 10.1665 0.366228L3.85594 7.22411L1.78065 4.96883C1.57993 4.76558 1.31445 4.65493 1.04015 4.66019C0.765838 4.66545 0.504117 4.78621 0.310122 4.99703C0.116127 5.20785 0.0050048 5.49227 0.000164961 5.79036C-0.00467487 6.08846 0.0971458 6.37696 0.284176 6.59509L3.10771 9.66349C3.30624 9.87897 3.57535 10 3.85594 10C4.13653 10 4.40565 9.87897 4.60418 9.66349L11.663 1.99248Z" fill="white"/>
</svg>
