<svg width="24" height="24" viewBox="0 0 24 24" fill="none" xmlns="http://www.w3.org/2000/svg">
<path d="M12 2.74976C11.5346 2.74962 11.0806 2.8938 10.7006 3.16244C10.3205 3.43109 10.0331 3.81097 9.878 4.24976C9.80937 4.43418 9.671 4.58425 9.49273 4.66759C9.31447 4.75093 9.11059 4.76087 8.92506 4.69527C8.73954 4.62966 8.58722 4.49377 8.50097 4.3169C8.41472 4.14002 8.40144 3.93633 8.464 3.74976C8.72255 3.01842 9.20148 2.38522 9.83483 1.93736C10.4682 1.48951 11.2248 1.24902 12.0005 1.24902C12.7762 1.24902 13.5328 1.48951 14.1662 1.93736C14.7995 2.38522 15.2784 3.01842 15.537 3.74976C15.6033 3.9374 15.5924 4.14369 15.5066 4.32326C15.4208 4.50282 15.2671 4.64095 15.0795 4.70726C14.8919 4.77356 14.6856 4.76261 14.506 4.67681C14.3264 4.59101 14.1883 4.4374 14.122 4.24976C13.9669 3.81097 13.6795 3.43109 13.2994 3.16244C12.9194 2.8938 12.4654 2.74962 12 2.74976ZM2.75 5.99976C2.75 5.80084 2.82902 5.61008 2.96967 5.46943C3.11032 5.32877 3.30109 5.24976 3.5 5.24976H20.5C20.6989 5.24976 20.8897 5.32877 21.0303 5.46943C21.171 5.61008 21.25 5.80084 21.25 5.99976C21.25 6.19867 21.171 6.38943 21.0303 6.53009C20.8897 6.67074 20.6989 6.74976 20.5 6.74976H3.5C3.30109 6.74976 3.11032 6.67074 2.96967 6.53009C2.82902 6.38943 2.75 6.19867 2.75 5.99976ZM5.915 8.44976C5.90174 8.25124 5.81016 8.06613 5.66041 7.93513C5.51067 7.80414 5.31501 7.738 5.1165 7.75126C4.91799 7.76452 4.73287 7.85609 4.60188 8.00584C4.47088 8.15559 4.40474 8.35124 4.418 8.54976L4.882 15.5018C4.967 16.7838 5.036 17.8198 5.198 18.6338C5.367 19.4788 5.653 20.1848 6.245 20.7378C6.837 21.2908 7.56 21.5308 8.415 21.6418C9.237 21.7498 10.275 21.7498 11.561 21.7498H12.44C13.725 21.7498 14.764 21.7498 15.586 21.6418C16.44 21.5308 17.164 21.2918 17.756 20.7378C18.347 20.1848 18.633 19.4778 18.802 18.6338C18.964 17.8198 19.032 16.7838 19.118 15.5018L19.582 8.54976C19.5953 8.35124 19.5291 8.15559 19.3981 8.00584C19.2671 7.85609 19.082 7.76452 18.8835 7.75126C18.685 7.738 18.4893 7.80414 18.3396 7.93513C18.1898 8.06613 18.0983 8.25124 18.085 8.44976L17.625 15.3498C17.535 16.6968 17.471 17.6348 17.331 18.3398C17.194 19.0248 17.004 19.3868 16.731 19.6428C16.457 19.8988 16.083 20.0648 15.391 20.1548C14.678 20.2478 13.738 20.2498 12.387 20.2498H11.613C10.263 20.2498 9.323 20.2478 8.609 20.1548C7.917 20.0648 7.543 19.8988 7.269 19.6428C6.996 19.3868 6.806 19.0248 6.669 18.3398C6.529 17.6348 6.465 16.6968 6.375 15.3498L5.915 8.44976Z" fill="#5C6670"/>
<path d="M9.42498 10.2542C9.62282 10.2344 9.82044 10.2939 9.97439 10.4198C10.1283 10.5456 10.226 10.7274 10.246 10.9252L10.746 15.9252C10.7606 16.1203 10.6985 16.3134 10.5728 16.4633C10.4471 16.6132 10.2678 16.708 10.0731 16.7276C9.87846 16.7472 9.68387 16.6899 9.53084 16.568C9.37781 16.4462 9.27846 16.2693 9.25398 16.0752L8.75398 11.0752C8.73416 10.8774 8.7937 10.6798 8.91953 10.5258C9.04535 10.3719 9.22716 10.2742 9.42498 10.2542ZM15.246 11.0752C15.2606 10.8801 15.1985 10.6871 15.0728 10.5372C14.9471 10.3873 14.7678 10.2924 14.5731 10.2728C14.3785 10.2533 14.1839 10.3105 14.0308 10.4324C13.8778 10.5543 13.7785 10.7311 13.754 10.9252L13.254 15.9252C13.2393 16.1203 13.3015 16.3134 13.4272 16.4633C13.5529 16.6132 13.7322 16.708 13.9269 16.7276C14.1215 16.7472 14.3161 16.6899 14.4691 16.568C14.6222 16.4462 14.7215 16.2693 14.746 16.0752L15.246 11.0752Z" fill="#5C6670"/>
</svg>
