<svg width="20" height="21" viewBox="0 0 20 21" fill="none" xmlns="http://www.w3.org/2000/svg">
<path fill-rule="evenodd" clip-rule="evenodd" d="M10 20.5C5.286 20.5 2.929 20.5 1.464 19.035C0 17.572 0 15.214 0 10.5C0 5.786 0 3.429 1.464 1.964C2.93 0.5 5.286 0.5 10 0.5C14.714 0.5 17.071 0.5 18.535 1.964C20 3.43 20 5.786 20 10.5C20 15.214 20 17.571 18.535 19.035C17.072 20.5 14.714 20.5 10 20.5ZM6.97 7.47C7.11063 7.32955 7.30125 7.25066 7.5 7.25066C7.69875 7.25066 7.88937 7.32955 8.03 7.47L10 9.44L11.97 7.47C12.1122 7.33752 12.3002 7.2654 12.4945 7.26882C12.6888 7.27225 12.8742 7.35097 13.0116 7.48838C13.149 7.62579 13.2277 7.81118 13.2312 8.00548C13.2346 8.19978 13.1625 8.38783 13.03 8.53L11.06 10.5L13.03 12.47C13.1037 12.5387 13.1628 12.6215 13.2038 12.7135C13.2448 12.8055 13.2668 12.9048 13.2686 13.0055C13.2704 13.1062 13.2518 13.2062 13.2141 13.2996C13.1764 13.393 13.1203 13.4778 13.049 13.549C12.9778 13.6203 12.893 13.6764 12.7996 13.7141C12.7062 13.7518 12.6062 13.7704 12.5055 13.7686C12.4048 13.7668 12.3055 13.7448 12.2135 13.7038C12.1215 13.6628 12.0387 13.6037 11.97 13.53L10 11.56L8.03 13.53C7.96134 13.6037 7.87854 13.6628 7.78654 13.7038C7.69454 13.7448 7.59522 13.7668 7.49452 13.7686C7.39382 13.7704 7.29379 13.7518 7.2004 13.7141C7.10701 13.6764 7.02218 13.6203 6.95096 13.549C6.87974 13.4778 6.8236 13.393 6.78588 13.2996C6.74816 13.2062 6.72963 13.1062 6.73141 13.0055C6.73318 12.9048 6.75523 12.8055 6.79622 12.7135C6.83721 12.6215 6.89631 12.5387 6.97 12.47L8.94 10.5L6.97 8.53C6.82955 8.38937 6.75066 8.19875 6.75066 8C6.75066 7.80125 6.82955 7.61063 6.97 7.47Z" fill="#EB5757"/>
</svg>
