<svg width="14" height="14" viewBox="0 0 14 14" fill="none" xmlns="http://www.w3.org/2000/svg">
  <path fill-rule="evenodd" clip-rule="evenodd"
    d="M4.19469 3.75134C4.09253 3.99807 4.03998 4.26252 4.04004 4.52956L4.04004 11.9409C4.04004 12.1825 3.84416 12.3784 3.60254 12.3784C3.36091 12.3784 3.16504 12.1825 3.16504 11.9409L3.16504 4.52977C3.16504 4.52981 3.16504 4.52974 3.16504 4.52977C3.16496 4.14782 3.24013 3.76949 3.38626 3.41659C3.5324 3.06366 3.74664 2.74298 4.01675 2.47288C4.28685 2.20277 4.60753 1.98853 4.96046 1.84239C5.31336 1.69626 5.69158 1.62109 6.07354 1.62117C6.0735 1.62117 6.07357 1.62117 6.07354 1.62117L7.30845 1.62117C7.55008 1.62117 7.74596 1.81704 7.74596 2.05867C7.74596 2.30029 7.55008 2.49617 7.30846 2.49617L6.07354 2.49617C5.80649 2.49611 5.54195 2.54866 5.29521 2.65082C5.04848 2.75299 4.8243 2.90277 4.63547 3.0916C4.44663 3.28043 4.29686 3.50461 4.19469 3.75134ZM6.25321 11.9409C6.25321 11.6993 6.44908 11.5034 6.69071 11.5034L7.92621 11.5034C8.19321 11.5035 8.45772 11.4509 8.70442 11.3488C8.95112 11.2467 9.17528 11.0969 9.36411 10.9082C9.55293 10.7194 9.70272 10.4953 9.80491 10.2486C9.90711 10.0019 9.95971 9.73751 9.95971 9.4705L9.9597 2.05925C9.9597 1.81763 10.1556 1.62175 10.3972 1.62175C10.6388 1.62175 10.8347 1.81763 10.8347 2.05925L10.8347 9.4705C10.8347 9.85243 10.7595 10.2306 10.6133 10.5835C10.4671 10.9363 10.2529 11.2569 9.98275 11.527C9.71266 11.797 9.39201 12.0112 9.03912 12.1573C8.68627 12.3033 8.3081 12.3785 7.92621 12.3784C7.92617 12.3784 7.92624 12.3784 7.92621 12.3784L6.69071 12.3784C6.44908 12.3784 6.25321 12.1825 6.25321 11.9409Z"
    fill="#5C6670" />
  <path fill-rule="evenodd" clip-rule="evenodd"
    d="M1.44069 9.77875C1.61157 9.60792 1.88858 9.60796 2.05941 9.77885L3.60272 11.3226L5.14656 9.7788C5.31741 9.60794 5.59442 9.60794 5.76528 9.7788C5.93613 9.94965 5.93613 10.2267 5.76528 10.3975L3.91203 12.2508C3.82997 12.3328 3.71868 12.3789 3.60263 12.3789C3.48659 12.3789 3.3753 12.3328 3.29326 12.2507L1.44059 10.3975C1.26976 10.2266 1.26981 9.94958 1.44069 9.77875ZM8.23477 4.22123C8.06389 4.0504 8.06385 3.77339 8.23468 3.60251L10.0873 1.74926C10.1694 1.66719 10.2807 1.62108 10.3967 1.62107C10.5128 1.62106 10.6241 1.66716 10.7061 1.74921L12.5594 3.60246C12.7302 3.77332 12.7302 4.05033 12.5594 4.22118C12.3885 4.39204 12.1115 4.39204 11.9406 4.22118L10.3968 2.67734L8.85349 4.22113C8.68266 4.39201 8.40565 4.39206 8.23477 4.22123Z"
    fill="#5C6670" />
</svg>
  