<svg width="24" height="24" viewBox="0 0 24 24" fill="none" xmlns="http://www.w3.org/2000/svg">
<path d="M11.0167 2H12.4651C12.6502 2 12.8276 2.0735 12.9584 2.20434C13.0893 2.33518 13.1628 2.51264 13.1628 2.69767C13.1628 2.88271 13.0893 3.06017 12.9584 3.191C12.8276 3.32184 12.6502 3.39535 12.4651 3.39535H11.0698C8.85767 3.39535 8.19907 3.39721 6.98977 3.55907C5.8 3.71907 5.08279 4.02419 4.55256 4.55349C4.02326 5.08372 3.71907 5.8 3.55907 6.98977C3.39721 8.19907 3.39535 9.78791 3.39535 12C3.39535 14.2121 3.39721 15.8009 3.55907 17.0102C3.71907 18.2 4.02419 18.9172 4.55349 19.4474C5.08372 19.9767 5.8 20.2809 6.98977 20.4409C8.19907 20.6028 9.78791 20.6047 12 20.6047C14.2121 20.6047 15.8009 20.6028 17.0102 20.4409C18.2 20.2809 18.9172 19.9758 19.4474 19.4465C19.9767 18.9163 20.2809 18.2 20.4409 17.0102C20.6028 15.8009 20.6047 15.1423 20.6047 12.9302V11.5349C20.6047 11.3498 20.6782 11.1724 20.809 11.0416C20.9398 10.9107 21.1173 10.8372 21.3023 10.8372C21.4874 10.8372 21.6648 10.9107 21.7957 11.0416C21.9265 11.1724 22 11.3498 22 11.5349V12.9833C22 15.1312 22 15.8837 21.8233 17.1972C21.6428 18.5405 21.2651 19.6009 20.4335 20.4335C19.6009 21.266 18.5405 21.6428 17.1963 21.8233C15.8837 22 14.2009 22 12.053 22H11.947C9.79907 22 8.11628 22 6.80279 21.8233C5.45954 21.6428 4.39907 21.2651 3.56651 20.4335C2.73395 19.6009 2.35721 18.5405 2.17674 17.1963C2 15.8837 2 14.2009 2 12.053V11.947C2 9.79907 2 8.11628 2.17674 6.80279C2.35721 5.45954 2.73488 4.39907 3.56651 3.56651C4.39907 2.73395 5.45953 2.35721 6.80372 2.17674C8.11628 2 8.86884 2 11.0167 2Z" fill="#2E3338"/>
<path d="M12.4372 10.5767C12.3687 10.6406 12.3137 10.7176 12.2756 10.8032C12.2374 10.8888 12.2169 10.9812 12.2153 11.0749C12.2136 11.1685 12.2308 11.2616 12.2659 11.3485C12.301 11.4353 12.3533 11.5143 12.4195 11.5805C12.4858 11.6468 12.5647 11.699 12.6515 11.7341C12.7384 11.7692 12.8315 11.7864 12.9251 11.7847C13.0188 11.7831 13.1112 11.7626 13.1968 11.7244C13.2824 11.6863 13.3594 11.6313 13.4233 11.5628L20.6047 4.3814V7.66884C20.6047 7.85387 20.6782 8.03133 20.809 8.16217C20.9398 8.29301 21.1173 8.36651 21.3023 8.36651C21.4874 8.36651 21.6648 8.29301 21.7957 8.16217C21.9265 8.03133 22 7.85387 22 7.66884V2.69767C22 2.51264 21.9265 2.33518 21.7957 2.20434C21.6648 2.0735 21.4874 2 21.3023 2H16.3312C16.1461 2 15.9687 2.0735 15.8378 2.20434C15.707 2.33518 15.6335 2.51264 15.6335 2.69767C15.6335 2.88271 15.707 3.06017 15.8378 3.191C15.9687 3.32184 16.1461 3.39535 16.3312 3.39535H19.6177L12.4372 10.5767Z" fill="#2E3338"/>
</svg>
