<svg xmlns="http://www.w3.org/2000/svg" width="24" height="24" viewBox="0 0 437 381" fill="none" stroke="none">
  <g transform="translate(0,381) scale(0.1,-0.1)" fill="#000">
    <path d="M275 3576 c-63 -29 -126 -97 -151 -162 -17 -44 -19 -78 -19 -339 0 -259 2 -295 19 -340 16 -44 87 -119 583 -616 l565 -566 3 -614 c2 -377 7 -626 13 -645 27 -84 93 -155 170 -185 53 -20 78 -22 367 -25 401 -4 453 5 536 93 75 78 83 106 87 311 l4 182 -148 0 -149 0 0 -145 0 -145 -292 0 -293 0 0 648 0 647 -585 585 -585 585 0 232 0 233 1465 0 1465 0 0 -145 0 -145 145 0 145 0 0 163 c0 110 -5 179 -14 210 -19 64 -71 132 -130 170 l-51 32 -1550 2 -1550 3 -50 -24z"/>
    <path d="M2552 2617 l-102 -102 335 -335 335 -335 -337 -337 -337 -337 103 -100 c57 -56 104 -101 106 -101 1 0 151 149 332 330 182 182 334 330 339 330 5 0 159 -150 341 -332 l333 -333 100 100 c55 55 100 104 100 109 0 5 -147 157 -327 338 -181 181 -330 330 -332 333 -2 2 145 154 328 336 182 183 331 335 331 338 0 4 -45 51 -100 106 l-100 100 -335 -335 c-184 -184 -337 -332 -339 -330 -3 3 -154 152 -334 333 -181 180 -331 327 -333 327 -2 0 -50 -46 -107 -103z"/>
  </g>
</svg>
