<svg width="20" height="21" viewBox="0 0 20 21" fill="none" xmlns="http://www.w3.org/2000/svg">
<path fill-rule="evenodd" clip-rule="evenodd" d="M20 10.5C20 16.023 15.523 20.5 10 20.5C4.477 20.5 0 16.023 0 10.5C0 4.977 4.477 0.5 10 0.5C15.523 0.5 20 4.977 20 10.5ZM10 16.25C10.1989 16.25 10.3897 16.171 10.5303 16.0303C10.671 15.8897 10.75 15.6989 10.75 15.5V9.5C10.75 9.30109 10.671 9.11032 10.5303 8.96967C10.3897 8.82902 10.1989 8.75 10 8.75C9.80109 8.75 9.61032 8.82902 9.46967 8.96967C9.32902 9.11032 9.25 9.30109 9.25 9.5V15.5C9.25 15.914 9.586 16.25 10 16.25ZM10 5.5C10.2652 5.5 10.5196 5.60536 10.7071 5.79289C10.8946 5.98043 11 6.23478 11 6.5C11 6.76522 10.8946 7.01957 10.7071 7.20711C10.5196 7.39464 10.2652 7.5 10 7.5C9.73478 7.5 9.48043 7.39464 9.29289 7.20711C9.10536 7.01957 9 6.76522 9 6.5C9 6.23478 9.10536 5.98043 9.29289 5.79289C9.48043 5.60536 9.73478 5.5 10 5.5Z" fill="#0179EF"/>
</svg>
