<svg width="24" height="24" viewBox="0 0 24 24" fill="none" xmlns="http://www.w3.org/2000/svg">
<path d="M5 15C4.068 15 3.602 15 3.235 15.152C2.99218 15.2525 2.77155 15.3999 2.58572 15.5857C2.3999 15.7716 2.25251 15.9922 2.152 16.235C2 16.602 2 17.068 2 18C2 18.932 2 19.398 2.152 19.765C2.25251 20.0078 2.3999 20.2284 2.58572 20.4143C2.77155 20.6001 2.99218 20.7475 3.235 20.848C3.602 21 4.068 21 5 21H19C19.932 21 20.398 21 20.765 20.848C21.0078 20.7475 21.2284 20.6001 21.4143 20.4143C21.6001 20.2284 21.7475 20.0078 21.848 19.765C22 19.398 22 18.932 22 18C22 17.068 22 16.602 21.848 16.235C21.7475 15.9922 21.6001 15.7716 21.4143 15.5857C21.2284 15.3999 21.0078 15.2525 20.765 15.152C20.398 15 19.932 15 19 15M5 15H19M5 15C4.068 15 3.602 15 3.235 14.848C2.99218 14.7475 2.77155 14.6001 2.58572 14.4143C2.3999 14.2284 2.25251 14.0078 2.152 13.765C2 13.398 2 12.932 2 12C2 11.068 2 10.602 2.152 10.235C2.25251 9.99218 2.3999 9.77155 2.58572 9.58572C2.77155 9.3999 2.99218 9.25251 3.235 9.152C3.602 9 4.068 9 5 9M19 15C19.932 15 20.398 15 20.765 14.848C21.0078 14.7475 21.2284 14.6001 21.4143 14.4143C21.6001 14.2284 21.7475 14.0078 21.848 13.765C22 13.398 22 12.932 22 12C22 11.068 22 10.602 21.848 10.235C21.7475 9.99218 21.6001 9.77155 21.4143 9.58572C21.2284 9.3999 21.0078 9.25251 20.765 9.152C20.398 9 19.932 9 19 9M5 9H19M5 9C4.068 9 3.602 9 3.235 8.848C2.99218 8.74749 2.77155 8.6001 2.58572 8.41428C2.3999 8.22845 2.25251 8.00782 2.152 7.765C2 7.398 2 6.932 2 6C2 5.068 2 4.602 2.152 4.235C2.25251 3.99218 2.3999 3.77155 2.58572 3.58572C2.77155 3.3999 2.99218 3.25251 3.235 3.152C3.602 3 4.068 3 5 3H19C19.932 3 20.398 3 20.765 3.152C21.0078 3.25251 21.2284 3.3999 21.4143 3.58572C21.6001 3.77155 21.7475 3.99218 21.848 4.235C22 4.602 22 5.068 22 6C22 6.932 22 7.398 21.848 7.765C21.7475 8.00782 21.6001 8.22845 21.4143 8.41428C21.2284 8.6001 21.0078 8.74749 20.765 8.848C20.398 9 19.932 9 19 9" stroke="#2E3338" stroke-width="1.5"/>
<path d="M5 13C5.55228 13 6 12.5523 6 12C6 11.4477 5.55228 11 5 11C4.44772 11 4 11.4477 4 12C4 12.5523 4.44772 13 5 13Z" fill="#2E3338"/>
<path d="M5 7C5.55228 7 6 6.55228 6 6C6 5.44772 5.55228 5 5 5C4.44772 5 4 5.44772 4 6C4 6.55228 4.44772 7 5 7Z" fill="#2E3338"/>
<path d="M5 19C5.55228 19 6 18.5523 6 18C6 17.4477 5.55228 17 5 17C4.44772 17 4 17.4477 4 18C4 18.5523 4.44772 19 5 19Z" fill="#2E3338"/>
</svg>
