<svg width="24" height="24" viewBox="0 0 24 24" fill="none" xmlns="http://www.w3.org/2000/svg">
<path d="M5.6 7.2C5.17565 7.2 4.76869 7.03143 4.46863 6.73137C4.16857 6.43131 4 6.02435 4 5.6C4 5.17565 4.16857 4.76869 4.46863 4.46863C4.76869 4.16857 5.17565 4 5.6 4C6.02435 4 6.43131 4.16857 6.73137 4.46863C7.03143 4.76869 7.2 5.17565 7.2 5.6C7.2 6.02435 7.03143 6.43131 6.73137 6.73137C6.43131 7.03143 6.02435 7.2 5.6 7.2ZM5.6 13.6C5.17565 13.6 4.76869 13.4314 4.46863 13.1314C4.16857 12.8313 4 12.4243 4 12C4 11.5757 4.16857 11.1687 4.46863 10.8686C4.76869 10.5686 5.17565 10.4 5.6 10.4C6.02435 10.4 6.43131 10.5686 6.73137 10.8686C7.03143 11.1687 7.2 11.5757 7.2 12C7.2 12.4243 7.03143 12.8313 6.73137 13.1314C6.43131 13.4314 6.02435 13.6 5.6 13.6ZM4 18.4C4 18.8243 4.16857 19.2313 4.46863 19.5314C4.76869 19.8314 5.17565 20 5.6 20C6.02435 20 6.43131 19.8314 6.73137 19.5314C7.03143 19.2313 7.2 18.8243 7.2 18.4C7.2 17.9757 7.03143 17.5687 6.73137 17.2686C6.43131 16.9686 6.02435 16.8 5.6 16.8C5.17565 16.8 4.76869 16.9686 4.46863 17.2686C4.16857 17.5687 4 17.9757 4 18.4Z" fill="#2E3338"/>
<path d="M12 7.2C11.5757 7.2 11.1687 7.03143 10.8686 6.73137C10.5686 6.43131 10.4 6.02435 10.4 5.6C10.4 5.17565 10.5686 4.76869 10.8686 4.46863C11.1687 4.16857 11.5757 4 12 4C12.4243 4 12.8313 4.16857 13.1314 4.46863C13.4314 4.76869 13.6 5.17565 13.6 5.6C13.6 6.02435 13.4314 6.43131 13.1314 6.73137C12.8313 7.03143 12.4243 7.2 12 7.2ZM12 13.6C11.5757 13.6 11.1687 13.4314 10.8686 13.1314C10.5686 12.8313 10.4 12.4243 10.4 12C10.4 11.5757 10.5686 11.1687 10.8686 10.8686C11.1687 10.5686 11.5757 10.4 12 10.4C12.4243 10.4 12.8313 10.5686 13.1314 10.8686C13.4314 11.1687 13.6 11.5757 13.6 12C13.6 12.4243 13.4314 12.8313 13.1314 13.1314C12.8313 13.4314 12.4243 13.6 12 13.6ZM10.4 18.4C10.4 18.8243 10.5686 19.2313 10.8686 19.5314C11.1687 19.8314 11.5757 20 12 20C12.4243 20 12.8313 19.8314 13.1314 19.5314C13.4314 19.2313 13.6 18.8243 13.6 18.4C13.6 17.9757 13.4314 17.5687 13.1314 17.2686C12.8313 16.9686 12.4243 16.8 12 16.8C11.5757 16.8 11.1687 16.9686 10.8686 17.2686C10.5686 17.5687 10.4 17.9757 10.4 18.4Z" fill="#2E3338"/>
<path d="M18.4 7.2C17.9757 7.2 17.5687 7.03143 17.2686 6.73137C16.9686 6.43131 16.8 6.02435 16.8 5.6C16.8 5.17565 16.9686 4.76869 17.2686 4.46863C17.5687 4.16857 17.9757 4 18.4 4C18.8243 4 19.2313 4.16857 19.5314 4.46863C19.8314 4.76869 20 5.17565 20 5.6C20 6.02435 19.8314 6.43131 19.5314 6.73137C19.2313 7.03143 18.8243 7.2 18.4 7.2ZM18.4 13.6C17.9757 13.6 17.5687 13.4314 17.2686 13.1314C16.9686 12.8313 16.8 12.4243 16.8 12C16.8 11.5757 16.9686 11.1687 17.2686 10.8686C17.5687 10.5686 17.9757 10.4 18.4 10.4C18.8243 10.4 19.2313 10.5686 19.5314 10.8686C19.8314 11.1687 20 11.5757 20 12C20 12.4243 19.8314 12.8313 19.5314 13.1314C19.2313 13.4314 18.8243 13.6 18.4 13.6ZM16.8 18.4C16.8 18.8243 16.9686 19.2313 17.2686 19.5314C17.5687 19.8314 17.9757 20 18.4 20C18.8243 20 19.2313 19.8314 19.5314 19.5314C19.8314 19.2313 20 18.8243 20 18.4C20 17.9757 19.8314 17.5687 19.5314 17.2686C19.2313 16.9686 18.8243 16.8 18.4 16.8C17.9757 16.8 17.5687 16.9686 17.2686 17.2686C16.9686 17.5687 16.8 17.9757 16.8 18.4Z" fill="#2E3338"/>
</svg>
