<svg width="14" height="15" viewBox="0 0 14 15" fill="none" xmlns="http://www.w3.org/2000/svg">
<g clip-path="url(#clip0_185_15195)">
<path d="M6.98344 14.3961C10.7896 14.3961 13.8751 11.3106 13.8751 7.50443C13.8751 3.69829 10.7896 0.612793 6.98344 0.612793C3.17729 0.612793 0.0917969 3.69829 0.0917969 7.50443C0.0917969 11.3106 3.17729 14.3961 6.98344 14.3961Z" fill="#0078F0"/>
<path d="M5.29446 9.95362L5.8707 8.33578L4.92374 5.67578H2.72266L4.24642 9.94998C4.32314 10.1594 4.53314 10.3028 4.76974 10.3078C5.00634 10.3045 5.21662 10.1633 5.29446 9.95362Z" fill="white"/>
<path d="M8.03297 5.72343C7.96605 5.54395 7.80281 5.38379 7.60289 5.37959C7.39289 5.37539 7.21621 5.54199 7.14705 5.73127L7.12885 5.78083L6.33589 8.04603L5.61741 10.062C5.58401 10.1516 5.53574 10.2349 5.47461 10.3084H7.33045C7.56817 10.3045 7.77845 10.1606 7.85685 9.95031L7.87533 9.89963L8.66801 7.63555L8.69125 7.57059L8.03297 5.72343Z" fill="white"/>
<path d="M9.14166 7.82848H11.3422L10.5932 5.72848C10.5162 5.5182 10.3048 5.37428 10.0668 5.37036H10.0309H8.21094C8.27156 5.4433 8.31946 5.52594 8.35262 5.6148L9.14166 7.82848Z" fill="white"/>
</g>
<defs>
<clipPath id="clip0_185_15195">
<rect width="14" height="14" fill="white" transform="translate(0 0.5)"/>
</clipPath>
</defs>
</svg>
