<svg xmlns="http://www.w3.org/2000/svg" width="24" height="24" viewBox="0 0 24 24" fill="none">
<path fill-rule="evenodd" clip-rule="evenodd" d="M10.102 2.396C10.577 1.774 11.166 1.25 12 1.25C12.834 1.25 13.422 1.774 13.899 2.396C14.367 3.008 14.864 3.899 15.471 4.988L15.83 5.631C16.222 6.335 16.323 6.485 16.449 6.581C16.569 6.672 16.726 6.724 17.489 6.897L18.189 7.055C19.365 7.321 20.334 7.54 21.039 7.818C21.771 8.107 22.412 8.532 22.659 9.325C22.903 10.11 22.629 10.832 22.205 11.505C21.793 12.16 21.135 12.93 20.331 13.87L19.856 14.425C19.339 15.029 19.231 15.177 19.18 15.34C19.129 15.507 19.133 15.7 19.212 16.505L19.283 17.243C19.405 18.499 19.504 19.523 19.469 20.303C19.434 21.098 19.254 21.86 18.599 22.358C17.931 22.864 17.154 22.808 16.404 22.592C15.677 22.384 14.771 21.967 13.671 21.46L13.015 21.158C12.297 20.828 12.144 20.775 12 20.775C11.856 20.775 11.703 20.828 10.985 21.158L10.33 21.46C9.22899 21.967 8.32299 22.384 7.59599 22.592C6.84599 22.807 6.06899 22.864 5.40199 22.358C4.74599 21.86 4.56599 21.098 4.53099 20.304C4.49599 19.524 4.59499 18.499 4.71699 17.244L4.78899 16.505C4.86699 15.699 4.87099 15.507 4.81899 15.34C4.76899 15.177 4.66099 15.03 4.14399 14.425L3.66899 13.87C2.86599 12.93 2.20799 12.16 1.79599 11.506C1.37099 10.832 1.09699 10.11 1.34099 9.325C1.58799 8.532 2.22899 8.107 2.96099 7.818C3.66599 7.54 4.63499 7.321 5.81099 7.055L5.87399 7.041L6.50999 6.897C7.27399 6.724 7.42999 6.672 7.55099 6.58C7.67699 6.485 7.77799 6.335 8.17099 5.631L8.52899 4.988C9.13599 3.898 9.63299 3.008 10.101 2.396" fill="#0179EF"/>
</svg>