<svg width="20" height="21" viewBox="0 0 20 21" fill="none" xmlns="http://www.w3.org/2000/svg">
<path fill-rule="evenodd" clip-rule="evenodd" d="M20 10.5C20 16.023 15.523 20.5 10 20.5C4.477 20.5 0 16.023 0 10.5C0 4.977 4.477 0.5 10 0.5C15.523 0.5 20 4.977 20 10.5ZM14.03 7.47C14.1705 7.61063 14.2493 7.80125 14.2493 8C14.2493 8.19875 14.1705 8.38937 14.03 8.53L9.03 13.53C8.88937 13.6705 8.69875 13.7493 8.5 13.7493C8.30125 13.7493 8.11063 13.6705 7.97 13.53L5.97 11.53C5.89631 11.4613 5.83721 11.3785 5.79622 11.2865C5.75523 11.1945 5.73319 11.0952 5.73141 10.9945C5.72963 10.8938 5.74816 10.7938 5.78588 10.7004C5.8236 10.607 5.87974 10.5222 5.95096 10.451C6.02218 10.3797 6.10701 10.3236 6.2004 10.2859C6.29379 10.2482 6.39382 10.2296 6.49452 10.2314C6.59522 10.2332 6.69454 10.2552 6.78654 10.2962C6.87854 10.3372 6.96134 10.3963 7.03 10.47L8.5 11.94L10.735 9.705L12.97 7.47C13.1106 7.32955 13.3012 7.25066 13.5 7.25066C13.6988 7.25066 13.8894 7.32955 14.03 7.47Z" fill="#219653"/>
</svg>
