<svg xmlns="http://www.w3.org/2000/svg" width="24" height="24" viewBox="0 0 24 24" fill="none">
<path d="M7.676 20.691C7.676 21.1052 7.34021 21.441 6.926 21.441C6.51179 21.441 6.176 21.1052 6.176 20.691L6.176 5.736C6.176 5.32186 6.51168 4.9861 6.92582 4.986C7.34011 4.9859 7.676 5.32172 7.676 5.736L7.676 20.691Z" fill="#0179EF"/>
<path d="M15.824 18.706V3.751C15.824 3.33679 16.1598 3.001 16.574 3.001C16.9882 3.001 17.324 3.33679 17.324 3.751V18.706C17.324 19.1202 16.9882 19.456 16.574 19.456C16.1598 19.456 15.824 19.1202 15.824 18.706Z" fill="#0179EF"/>
<path fill-rule="evenodd" clip-rule="evenodd" d="M3.21975 16.9846C3.51269 16.6917 3.98757 16.6918 4.28041 16.9848L6.92608 19.6313L9.57267 16.9847C9.86556 16.6918 10.3404 16.6918 10.6333 16.9847C10.9262 17.2776 10.9262 17.7524 10.6333 18.0453L7.45633 21.2223C7.31566 21.363 7.12487 21.442 6.92594 21.442C6.72701 21.442 6.53623 21.3629 6.39559 21.2222L3.21959 18.0452C2.92674 17.7523 2.92681 17.2774 3.21975 16.9846ZM12.8668 7.45741C12.5738 7.16457 12.5737 6.68969 12.8666 6.39675L16.0426 3.21975C16.1832 3.07907 16.374 3.00002 16.5729 3C16.7719 2.99998 16.9627 3.079 17.1033 3.21967L20.2803 6.39667C20.5732 6.68956 20.5732 7.16444 20.2803 7.45733C19.9874 7.75022 19.5126 7.75022 19.2197 7.45733L16.5731 4.81074L13.9274 7.45725C13.6346 7.75019 13.1597 7.75026 12.8668 7.45741Z" fill="#0179EF"/>
</svg>