<svg width="20" height="19" viewBox="0 0 20 19" fill="none" xmlns="http://www.w3.org/2000/svg">
<path fill-rule="evenodd" clip-rule="evenodd" d="M3.31224 8.262C6.23024 3.087 7.68924 0.5 10.0002 0.5C12.3112 0.5 13.7702 3.087 16.6882 8.262L17.0522 8.906C19.4772 13.206 20.6902 15.356 19.5942 16.928C18.4982 18.5 15.7862 18.5 10.3642 18.5H9.63624C4.21424 18.5 1.50224 18.5 0.40624 16.928C-0.689759 15.356 0.523241 13.206 2.94824 8.906L3.31224 8.262ZM10.0002 4.75C10.1992 4.75 10.3899 4.82902 10.5306 4.96967C10.6712 5.11032 10.7502 5.30109 10.7502 5.5V10.5C10.7502 10.6989 10.6712 10.8897 10.5306 11.0303C10.3899 11.171 10.1992 11.25 10.0002 11.25C9.80133 11.25 9.61056 11.171 9.46991 11.0303C9.32926 10.8897 9.25024 10.6989 9.25024 10.5V5.5C9.25024 5.30109 9.32926 5.11032 9.46991 4.96967C9.61056 4.82902 9.80133 4.75 10.0002 4.75ZM10.0002 14.5C10.2655 14.5 10.5198 14.3946 10.7073 14.2071C10.8949 14.0196 11.0002 13.7652 11.0002 13.5C11.0002 13.2348 10.8949 12.9804 10.7073 12.7929C10.5198 12.6054 10.2655 12.5 10.0002 12.5C9.73502 12.5 9.48067 12.6054 9.29313 12.7929C9.1056 12.9804 9.00024 13.2348 9.00024 13.5C9.00024 13.7652 9.1056 14.0196 9.29313 14.2071C9.48067 14.3946 9.73502 14.5 10.0002 14.5Z" fill="#F2882C"/>
</svg>
